<svg version="1.2" xmlns="http://www.w3.org/2000/svg" viewBox="0 0 745 101" width="745" height="101">
	<title>SecuroomAi (белый)</title>
	<style>
		.s0 { fill: #e48c2a } 
		.s1 { fill: #ffffff } 
	</style>
	<g>
		<g id="_Слой_1">
			<path fill-rule="evenodd" class="s0" d="m705.8 13.3h24.8v71.4h-24.8z"/>
			<path fill-rule="evenodd" class="s0" d="m635.1 84.7l32.3-70 31.9 70.2-64.2-0.2z"/>
			<g>
				<path class="s1" d="m12 76.7l6.6-14.8c6.3 4.2 15.2 7 23.4 7 8.2 0 11.5-2.3 11.5-5.8 0-11.2-40.3-3-40.3-29.4 0-26.4 10.3-23 31.4-23 21.1 0 18.7 2.1 25.7 6.2l-6.2 14.9c-6.8-3.6-13.5-5.5-19.7-5.5-6.2 0-11.4 2.8-11.4 6.4 0 10.8 40.2 2.7 40.2 28.9 0 26.2-10.3 22.9-31.4 22.9-21.1 0-23.2-3.1-29.9-7.8z"/>
				<path class="s1" d="m138.4 67.6v15.5h-56.9v-70.9h55.6v15.5h-35.8v12h31.5v15h-31.5v13h37.1z"/>
				<path class="s1" d="m144.8 47.6c0-21.6 16.5-36.9 39-36.9 22.5 0 23.6 4.8 30.5 13.4l-12.8 11.5c-4.5-5.4-9.9-8.3-16.7-8.3-11.6 0-19.8 8.1-19.8 20.3 0 12.2 8.1 20.3 19.8 20.3 11.7 0 12.3-2.9 16.7-8.3l12.8 11.5c-6.9 8.6-17.4 13.4-30.5 13.4-22.5 0-39-15.3-39-36.9z"/>
				<path class="s1" d="m220.8 51.5v-39.3h20.1v38.7c0 12.2 5.1 17 13.5 17 8.4 0 13.4-4.9 13.4-17v-38.7h19.8v39.3c0 21.2-12.4 33-33.3 33-20.9 0-33.3-11.9-33.3-33z"/>
				<path class="s1" d="m331 64.3h-10.9v18.8h-20.1v-70.9h32.4c19.3 0 31.5 10 31.5 26.2 0 16.2-5.1 18.1-13.9 22.4l15.3 22.3h-21.5l-12.9-18.8zm0.2-36.3h-11.1v20.8h11.1c8.3 0 12.5-3.8 12.5-10.3 0-6.5-4.2-10.4-12.5-10.4z"/>
				<path class="s1" d="m370.3 47.6c0-21.3 16.7-36.9 39.4-36.9 22.7 0 39.4 15.6 39.4 36.9 0 21.3-16.7 36.9-39.4 36.9-22.7 0-39.4-15.6-39.4-36.9zm58.6 0c0-12.3-8.4-20.3-19.1-20.3-10.7 0-19.1 8-19.1 20.3 0 12.3 8.4 20.3 19.1 20.3 10.7 0 19.1-8 19.1-20.3z"/>
				<path class="s1" d="m455 47.6c0-21.3 16.7-36.9 39.4-36.9 22.7 0 39.4 15.6 39.4 36.9 0 21.3-16.7 36.9-39.4 36.9-22.7 0-39.4-15.6-39.4-36.9zm58.6 0c0-12.3-8.4-20.3-19.1-20.3-10.7 0-19.1 8-19.1 20.3 0 12.3 8.4 20.3 19.1 20.3 10.7 0 19.1-8 19.1-20.3z"/>
				<path class="s1" d="m607.4 83.1l-0.2-37.6-18.2 30.6h-8.9l-18.1-29.6v36.6h-18.5v-70.9h16.5l24.9 40.9 24.3-40.9h16.5l0.2 70.9h-18.4z"/>
			</g>
		</g>
	</g>
</svg>